<svg width="400" height="442" viewBox="0 0 400 442" fill="none" xmlns="http://www.w3.org/2000/svg">
<rect y="1.98651" width="400" height="440" fill="#00364C"/>
<line y1="1" x2="400" y2="1" stroke="#002B3C" stroke-width="2"/>
<line y1="4.51581" x2="400" y2="4.51581" stroke="#002B3C" stroke-width="2"/>
<line y1="8.03156" x2="400" y2="8.03156" stroke="#002B3C" stroke-width="2"/>
<line y1="11.5473" x2="400" y2="11.5473" stroke="#002B3C" stroke-width="2"/>
<line y1="15.0631" x2="400" y2="15.0631" stroke="#002B3C" stroke-width="2"/>
<line y1="18.5789" x2="400" y2="18.5789" stroke="#002B3C" stroke-width="2"/>
<line y1="22.0947" x2="400" y2="22.0947" stroke="#002B3C" stroke-width="2"/>
<line y1="25.6104" x2="400" y2="25.6104" stroke="#002B3C" stroke-width="2"/>
<line y1="29.6284" x2="400" y2="29.6284" stroke="#002B3C" stroke-width="2"/>
<line y1="33.1442" x2="400" y2="33.1442" stroke="#002B3C" stroke-width="2"/>
<line y1="36.6599" x2="400" y2="36.6599" stroke="#002B3C" stroke-width="2"/>
<line y1="39.6735" x2="400" y2="39.6735" stroke="#002B3C" stroke-width="2"/>
<line y1="43.6915" x2="400" y2="43.6915" stroke="#002B3C" stroke-width="2"/>
<line y1="47.2072" x2="400" y2="47.2072" stroke="#002B3C" stroke-width="2"/>
<line y1="50.723" x2="400" y2="50.723" stroke="#002B3C" stroke-width="2"/>
<line y1="54.2388" x2="400" y2="54.2388" stroke="#002B3C" stroke-width="2"/>
<line y1="57.7545" x2="400" y2="57.7545" stroke="#002B3C" stroke-width="2"/>
<line y1="61.2703" x2="400" y2="61.2703" stroke="#002B3C" stroke-width="2"/>
<line y1="64.7861" x2="400" y2="64.7861" stroke="#002B3C" stroke-width="2"/>
<line y1="68.3018" x2="400" y2="68.3018" stroke="#002B3C" stroke-width="2"/>
<line y1="71.8176" x2="400" y2="71.8176" stroke="#002B3C" stroke-width="2"/>
<line y1="75.8356" x2="400" y2="75.8356" stroke="#002B3C" stroke-width="2"/>
<line y1="78.8491" x2="400" y2="78.8491" stroke="#002B3C" stroke-width="2"/>
<line y1="82.3649" x2="400" y2="82.3649" stroke="#002B3C" stroke-width="2"/>
<line y1="86.3829" x2="400" y2="86.3829" stroke="#002B3C" stroke-width="2"/>
<line y1="89.8987" x2="400" y2="89.8987" stroke="#002B3C" stroke-width="2"/>
<line y1="93.4144" x2="400" y2="93.4144" stroke="#002B3C" stroke-width="2"/>
<line y1="96.428" x2="400" y2="96.428" stroke="#002B3C" stroke-width="2"/>
<line y1="100.446" x2="400" y2="100.446" stroke="#002B3C" stroke-width="2"/>
<line y1="103.962" x2="400" y2="103.962" stroke="#002B3C" stroke-width="2"/>
<line y1="107.477" x2="400" y2="107.477" stroke="#002B3C" stroke-width="2"/>
<line y1="110.993" x2="400" y2="110.993" stroke="#002B3C" stroke-width="2"/>
<line y1="114.509" x2="400" y2="114.509" stroke="#002B3C" stroke-width="2"/>
<line y1="118.025" x2="400" y2="118.025" stroke="#002B3C" stroke-width="2"/>
<line y1="121.541" x2="400" y2="121.541" stroke="#002B3C" stroke-width="2"/>
<line y1="125.056" x2="400" y2="125.056" stroke="#002B3C" stroke-width="2"/>
<line y1="128.572" x2="400" y2="128.572" stroke="#002B3C" stroke-width="2"/>
<line y1="132.59" x2="400" y2="132.59" stroke="#002B3C" stroke-width="2"/>
<line y1="135.604" x2="400" y2="135.604" stroke="#002B3C" stroke-width="2"/>
<line y1="139.119" x2="400" y2="139.119" stroke="#002B3C" stroke-width="2"/>
<line y1="143.137" x2="400" y2="143.137" stroke="#002B3C" stroke-width="2"/>
<line y1="146.653" x2="400" y2="146.653" stroke="#002B3C" stroke-width="2"/>
<line y1="150.169" x2="400" y2="150.169" stroke="#002B3C" stroke-width="2"/>
<line y1="153.182" x2="400" y2="153.182" stroke="#002B3C" stroke-width="2"/>
<line y1="157.201" x2="400" y2="157.201" stroke="#002B3C" stroke-width="2"/>
<line y1="160.716" x2="400" y2="160.716" stroke="#002B3C" stroke-width="2"/>
<line y1="164.232" x2="400" y2="164.232" stroke="#002B3C" stroke-width="2"/>
<line y1="167.748" x2="400" y2="167.748" stroke="#002B3C" stroke-width="2"/>
<line y1="171.264" x2="400" y2="171.264" stroke="#002B3C" stroke-width="2"/>
<line y1="174.779" x2="400" y2="174.779" stroke="#002B3C" stroke-width="2"/>
<line y1="178.295" x2="400" y2="178.295" stroke="#002B3C" stroke-width="2"/>
<line y1="181.811" x2="400" y2="181.811" stroke="#002B3C" stroke-width="2"/>
<line y1="185.327" x2="400" y2="185.327" stroke="#002B3C" stroke-width="2"/>
<line y1="189.345" x2="400" y2="189.345" stroke="#002B3C" stroke-width="2"/>
<line y1="192.358" x2="400" y2="192.358" stroke="#002B3C" stroke-width="2"/>
<line y1="195.874" x2="400" y2="195.874" stroke="#002B3C" stroke-width="2"/>
<line y1="199.892" x2="400" y2="199.892" stroke="#002B3C" stroke-width="2"/>
<line y1="203.408" x2="400" y2="203.408" stroke="#002B3C" stroke-width="2"/>
<line y1="206.924" x2="400" y2="206.924" stroke="#002B3C" stroke-width="2"/>
<line y1="210.439" x2="400" y2="210.439" stroke="#002B3C" stroke-width="2"/>
<line y1="213.955" x2="400" y2="213.955" stroke="#002B3C" stroke-width="2"/>
<line y1="217.471" x2="400" y2="217.471" stroke="#002B3C" stroke-width="2"/>
<line y1="220.987" x2="400" y2="220.987" stroke="#002B3C" stroke-width="2"/>
<line y1="220.987" x2="400" y2="220.987" stroke="#002B3C" stroke-width="2"/>
<line y1="224.502" x2="400" y2="224.502" stroke="#002B3C" stroke-width="2"/>
<line y1="228.018" x2="400" y2="228.018" stroke="#002B3C" stroke-width="2"/>
<line y1="231.534" x2="400" y2="231.534" stroke="#002B3C" stroke-width="2"/>
<line y1="235.05" x2="400" y2="235.05" stroke="#002B3C" stroke-width="2"/>
<line y1="238.565" x2="400" y2="238.565" stroke="#002B3C" stroke-width="2"/>
<line y1="242.081" x2="400" y2="242.081" stroke="#002B3C" stroke-width="2"/>
<line y1="245.597" x2="400" y2="245.597" stroke="#002B3C" stroke-width="2"/>
<line y1="249.615" x2="400" y2="249.615" stroke="#002B3C" stroke-width="2"/>
<line y1="253.131" x2="400" y2="253.131" stroke="#002B3C" stroke-width="2"/>
<line y1="256.646" x2="400" y2="256.646" stroke="#002B3C" stroke-width="2"/>
<line y1="259.66" x2="400" y2="259.66" stroke="#002B3C" stroke-width="2"/>
<line y1="263.678" x2="400" y2="263.678" stroke="#002B3C" stroke-width="2"/>
<line y1="267.194" x2="400" y2="267.194" stroke="#002B3C" stroke-width="2"/>
<line y1="270.71" x2="400" y2="270.71" stroke="#002B3C" stroke-width="2"/>
<line y1="274.225" x2="400" y2="274.225" stroke="#002B3C" stroke-width="2"/>
<line y1="277.741" x2="400" y2="277.741" stroke="#002B3C" stroke-width="2"/>
<line y1="281.257" x2="400" y2="281.257" stroke="#002B3C" stroke-width="2"/>
<line y1="284.773" x2="400" y2="284.773" stroke="#002B3C" stroke-width="2"/>
<line y1="288.288" x2="400" y2="288.288" stroke="#002B3C" stroke-width="2"/>
<line y1="291.804" x2="400" y2="291.804" stroke="#002B3C" stroke-width="2"/>
<line y1="295.822" x2="400" y2="295.822" stroke="#002B3C" stroke-width="2"/>
<line y1="298.836" x2="400" y2="298.836" stroke="#002B3C" stroke-width="2"/>
<line y1="302.351" x2="400" y2="302.351" stroke="#002B3C" stroke-width="2"/>
<line y1="306.369" x2="400" y2="306.369" stroke="#002B3C" stroke-width="2"/>
<line y1="309.885" x2="400" y2="309.885" stroke="#002B3C" stroke-width="2"/>
<line y1="313.401" x2="400" y2="313.401" stroke="#002B3C" stroke-width="2"/>
<line y1="316.414" x2="400" y2="316.414" stroke="#002B3C" stroke-width="2"/>
<line y1="320.432" x2="400" y2="320.432" stroke="#002B3C" stroke-width="2"/>
<line y1="323.948" x2="400" y2="323.948" stroke="#002B3C" stroke-width="2"/>
<line y1="327.464" x2="400" y2="327.464" stroke="#002B3C" stroke-width="2"/>
<line y1="330.98" x2="400" y2="330.98" stroke="#002B3C" stroke-width="2"/>
<line y1="334.496" x2="400" y2="334.496" stroke="#002B3C" stroke-width="2"/>
<line y1="338.011" x2="400" y2="338.011" stroke="#002B3C" stroke-width="2"/>
<line y1="341.527" x2="400" y2="341.527" stroke="#002B3C" stroke-width="2"/>
<line y1="345.043" x2="400" y2="345.043" stroke="#002B3C" stroke-width="2"/>
<line y1="348.559" x2="400" y2="348.559" stroke="#002B3C" stroke-width="2"/>
<line y1="352.577" x2="400" y2="352.577" stroke="#002B3C" stroke-width="2"/>
<line y1="355.59" x2="400" y2="355.59" stroke="#002B3C" stroke-width="2"/>
<line y1="359.106" x2="400" y2="359.106" stroke="#002B3C" stroke-width="2"/>
<line y1="363.124" x2="400" y2="363.124" stroke="#002B3C" stroke-width="2"/>
<line y1="366.64" x2="400" y2="366.64" stroke="#002B3C" stroke-width="2"/>
<line y1="370.155" x2="400" y2="370.155" stroke="#002B3C" stroke-width="2"/>
<line y1="373.169" x2="400" y2="373.169" stroke="#002B3C" stroke-width="2"/>
<line y1="377.187" x2="400" y2="377.187" stroke="#002B3C" stroke-width="2"/>
<line y1="380.703" x2="400" y2="380.703" stroke="#002B3C" stroke-width="2"/>
<line y1="384.219" x2="400" y2="384.219" stroke="#002B3C" stroke-width="2"/>
<line y1="387.734" x2="400" y2="387.734" stroke="#002B3C" stroke-width="2"/>
<line y1="391.25" x2="400" y2="391.25" stroke="#002B3C" stroke-width="2"/>
<line y1="394.766" x2="400" y2="394.766" stroke="#002B3C" stroke-width="2"/>
<line y1="398.282" x2="400" y2="398.282" stroke="#002B3C" stroke-width="2"/>
<line y1="401.797" x2="400" y2="401.797" stroke="#002B3C" stroke-width="2"/>
<line y1="405.313" x2="400" y2="405.313" stroke="#002B3C" stroke-width="2"/>
<line y1="409.331" x2="400" y2="409.331" stroke="#002B3C" stroke-width="2"/>
<line y1="412.345" x2="400" y2="412.345" stroke="#002B3C" stroke-width="2"/>
<line y1="415.86" x2="400" y2="415.86" stroke="#002B3C" stroke-width="2"/>
<line y1="419.878" x2="400" y2="419.878" stroke="#002B3C" stroke-width="2"/>
<line y1="423.394" x2="400" y2="423.394" stroke="#002B3C" stroke-width="2"/>
<line y1="426.91" x2="400" y2="426.91" stroke="#002B3C" stroke-width="2"/>
<line y1="430.426" x2="400" y2="430.426" stroke="#002B3C" stroke-width="2"/>
<line y1="433.942" x2="400" y2="433.942" stroke="#002B3C" stroke-width="2"/>
<line y1="437.457" x2="400" y2="437.457" stroke="#002B3C" stroke-width="2"/>
<line y1="440.973" x2="400" y2="440.973" stroke="#002B3C" stroke-width="2"/>
<g filter="url(#filter0_d_562_918)">
<rect x="24.8516" y="167.509" width="119.104" height="170.148" rx="10.2089" transform="rotate(-25 24.8516 167.509)" fill="#52DA4B"/>
<rect x="27.1127" y="168.332" width="115.701" height="166.745" rx="8.5074" transform="rotate(-25 27.1127 168.332)" stroke="black" stroke-width="3.40296"/>
</g>
<path d="M104.963 246.056L102.087 239.887L114.424 234.135L102.918 209.462L96.7501 212.338L93.8738 206.17L100.042 203.294L97.1658 197.125L109.502 191.373L126.76 228.382L139.097 222.63L141.973 228.798L104.963 246.056Z" fill="#000001"/>
<path d="M176.799 270.764L175.002 266.909L176.929 266.01L176.031 264.083L177.958 263.184L177.059 261.256L180.914 259.459L180.016 257.531L181.943 256.632L181.044 254.705L175.262 257.401L176.16 259.329L172.305 261.126L171.406 259.199L173.334 258.3L172.435 256.372L182.073 251.878L182.972 253.806L184.899 252.907L186.697 256.762L184.77 257.661L185.668 259.589L183.741 260.487L184.64 262.415L180.785 264.213L181.683 266.14L189.394 262.545L190.293 264.472L176.799 270.764Z" fill="#000001"/>
<path d="M124.077 152.669L123.178 150.741L127.033 148.943L123.438 141.233L121.51 142.132L120.611 140.204L122.539 139.305L121.64 137.378L125.495 135.58L130.888 147.146L134.743 145.348L135.642 147.276L124.077 152.669Z" fill="#000001"/>
<path d="M103.166 305.1L102.267 303.173L106.122 301.375L102.526 293.665L100.599 294.564L99.7001 292.636L101.628 291.737L100.729 289.81L104.584 288.012L109.977 299.577L113.832 297.78L114.731 299.707L103.166 305.1Z" fill="#000001"/>
<path d="M48.5152 187.903L47.6163 185.976L51.4715 184.178L47.8761 176.468L45.9485 177.367L45.0497 175.439L46.9772 174.54L46.0784 172.613L49.9336 170.815L55.3266 182.38L59.1818 180.583L60.0806 182.51L48.5152 187.903Z" fill="#000001"/>
<g filter="url(#filter1_d_562_918)">
<rect x="138.851" y="117.173" width="119.104" height="170.148" rx="10.2089" fill="#52DA4B"/>
<rect x="140.552" y="118.875" width="115.701" height="166.745" rx="8.5074" stroke="black" stroke-width="3.40296"/>
</g>
<path d="M171.455 222.218V208.606H178.261V201.8H185.067V194.994H198.679V188.188H205.485V181.382H185.067V188.188H171.455V181.382H178.261V174.576H212.291V181.382H219.096V194.994H212.291V201.8H205.485V208.606H191.873V215.412H219.096V222.218H171.455Z" fill="#000001"/>
<path d="M237.179 274.971V268.59H239.306V266.463H241.433V264.337H243.559V262.21H237.179V264.337H232.925V260.083H247.813V264.337H245.686V266.463H243.559V268.59H241.433V274.971H237.179Z" fill="#000001"/>
<path d="M232.925 145.658V141.405H235.052V139.278H237.179V137.151H241.433V135.024H243.559V132.897H237.179V135.024H232.925V132.897H235.052V130.77H245.686V132.897H247.813V137.151H245.686V139.278H243.559V141.405H239.306V143.532H247.813V145.658H232.925Z" fill="#000001"/>
<path d="M149.552 274.971V270.717H151.679V268.59H153.806V266.463H158.06V264.337H160.186V262.21H153.806V264.337H149.552V262.21H151.679V260.083H162.313V262.21H164.44V266.463H162.313V268.59H160.186V270.717H155.933V272.844H164.44V274.971H149.552Z" fill="#000001"/>
<path d="M149.552 145.658V141.405H151.679V139.278H153.806V137.151H158.06V135.024H160.186V132.897H153.806V135.024H149.552V132.897H151.679V130.77H162.313V132.897H164.44V137.151H162.313V139.278H160.186V141.405H155.933V143.532H164.44V145.658H149.552Z" fill="#000001"/>
<g filter="url(#filter2_d_562_918)">
<rect x="266.907" y="115.472" width="119.104" height="170.148" rx="10.2089" transform="rotate(25 266.907 115.472)" fill="#52DA4B"/>
<rect x="267.73" y="117.733" width="115.701" height="166.745" rx="8.5074" transform="rotate(25 267.73 117.733)" stroke="black" stroke-width="3.40296"/>
</g>
<path d="M258.23 227.33L261.107 221.162L254.938 218.285L257.815 212.117L270.151 217.87L267.275 224.038L285.78 232.667L291.532 220.33L273.028 211.702L275.904 205.533L282.072 208.41L284.948 202.241L291.117 205.118L293.993 198.949L275.488 190.32L278.365 184.152L315.374 201.41L312.498 207.578L306.33 204.702L303.453 210.87L297.285 207.994L294.409 214.162L300.577 217.039L297.701 223.207L303.869 226.083L298.116 238.42L291.948 235.543L289.072 241.712L258.23 227.33Z" fill="#000001"/>
<path d="M287.406 299.141L288.305 297.214L286.377 296.315L287.276 294.387L291.131 296.185L290.232 298.112L296.015 300.809L297.813 296.954L292.03 294.257L292.929 292.33L294.856 293.229L295.755 291.301L297.683 292.2L298.582 290.272L292.799 287.576L293.698 285.648L305.263 291.041L304.364 292.969L302.437 292.07L301.538 293.998L299.61 293.099L298.711 295.026L300.639 295.925L299.74 297.853L301.668 298.752L299.87 302.607L297.942 301.708L297.044 303.635L287.406 299.141Z" fill="#000001"/>
<path d="M342.056 181.944L342.955 180.017L341.027 179.118L341.926 177.19L345.781 178.988L344.883 180.916L350.665 183.612L352.463 179.757L346.68 177.06L347.579 175.133L349.507 176.032L350.406 174.104L352.333 175.003L353.232 173.075L347.449 170.379L348.348 168.451L359.914 173.844L359.015 175.772L357.087 174.873L356.188 176.801L354.261 175.902L353.362 177.829L355.289 178.728L354.391 180.656L356.318 181.555L354.52 185.41L352.593 184.511L351.694 186.439L342.056 181.944Z" fill="#000001"/>
<path d="M211.845 263.907L212.744 261.979L210.816 261.08L211.715 259.152L215.57 260.95L214.672 262.878L220.454 265.574L222.252 261.719L216.469 259.023L217.368 257.095L219.296 257.994L220.195 256.066L222.122 256.965L223.021 255.038L217.238 252.341L218.137 250.413L229.703 255.807L228.804 257.734L226.876 256.835L225.977 258.763L224.05 257.864L223.151 259.792L225.078 260.69L224.18 262.618L226.107 263.517L224.31 267.372L222.382 266.473L221.483 268.401L211.845 263.907Z" fill="#000001"/>
<path d="M266.495 146.71L267.393 144.782L265.466 143.883L266.365 141.956L270.22 143.753L269.321 145.681L275.104 148.377L276.901 144.522L271.119 141.826L272.018 139.898L273.945 140.797L274.844 138.869L276.772 139.768L277.67 137.841L271.888 135.144L272.787 133.217L284.352 138.61L283.453 140.537L281.526 139.638L280.627 141.566L278.699 140.667L277.8 142.595L279.728 143.494L278.829 145.421L280.757 146.32L278.959 150.175L277.031 149.276L276.133 151.204L266.495 146.71Z" fill="#000001"/>
<defs>
<filter id="filter0_d_562_918" x="21.4011" y="120.529" width="186.753" height="211.443" filterUnits="userSpaceOnUse" color-interpolation-filters="sRGB">
<feFlood flood-opacity="0" result="BackgroundImageFix"/>
<feColorMatrix in="SourceAlpha" type="matrix" values="0 0 0 0 0 0 0 0 0 0 0 0 0 0 0 0 0 0 127 0" result="hardAlpha"/>
<feOffset dy="6.80592"/>
<feGaussianBlur stdDeviation="3.40296"/>
<feComposite in2="hardAlpha" operator="out"/>
<feColorMatrix type="matrix" values="0 0 0 0 0 0 0 0 0 0 0 0 0 0 0 0 0 0 0.25 0"/>
<feBlend mode="normal" in2="BackgroundImageFix" result="effect1_dropShadow_562_918"/>
<feBlend mode="normal" in="SourceGraphic" in2="effect1_dropShadow_562_918" result="shape"/>
</filter>
<filter id="filter1_d_562_918" x="132.045" y="117.173" width="132.715" height="183.76" filterUnits="userSpaceOnUse" color-interpolation-filters="sRGB">
<feFlood flood-opacity="0" result="BackgroundImageFix"/>
<feColorMatrix in="SourceAlpha" type="matrix" values="0 0 0 0 0 0 0 0 0 0 0 0 0 0 0 0 0 0 127 0" result="hardAlpha"/>
<feOffset dy="6.80592"/>
<feGaussianBlur stdDeviation="3.40296"/>
<feComposite in2="hardAlpha" operator="out"/>
<feColorMatrix type="matrix" values="0 0 0 0 0 0 0 0 0 0 0 0 0 0 0 0 0 0 0.25 0"/>
<feBlend mode="normal" in2="BackgroundImageFix" result="effect1_dropShadow_562_918"/>
<feBlend mode="normal" in="SourceGraphic" in2="effect1_dropShadow_562_918" result="shape"/>
</filter>
<filter id="filter2_d_562_918" x="191.55" y="118.827" width="186.752" height="211.443" filterUnits="userSpaceOnUse" color-interpolation-filters="sRGB">
<feFlood flood-opacity="0" result="BackgroundImageFix"/>
<feColorMatrix in="SourceAlpha" type="matrix" values="0 0 0 0 0 0 0 0 0 0 0 0 0 0 0 0 0 0 127 0" result="hardAlpha"/>
<feOffset dy="6.80592"/>
<feGaussianBlur stdDeviation="3.40296"/>
<feComposite in2="hardAlpha" operator="out"/>
<feColorMatrix type="matrix" values="0 0 0 0 0 0 0 0 0 0 0 0 0 0 0 0 0 0 0.25 0"/>
<feBlend mode="normal" in2="BackgroundImageFix" result="effect1_dropShadow_562_918"/>
<feBlend mode="normal" in="SourceGraphic" in2="effect1_dropShadow_562_918" result="shape"/>
</filter>
</defs>
</svg>
